
<?xml version="1.0" encoding="utf-8"?>
<!-- Generator: Adobe Illustrator 18.0.0, SVG Export Plug-In . SVG Version: 6.00 Build 0)  -->
<!DOCTYPE svg PUBLIC "-//W3C//DTD SVG 1.1//EN" "http://www.w3.org/Graphics/SVG/1.1/DTD/svg11.dtd">
<svg version="1.1" id="Layer_1" xmlns="http://www.w3.org/2000/svg" xmlns:xlink="http://www.w3.org/1999/xlink" x="0px" y="0px"
     viewBox="0 0 960 560" enable-background="new 0 0 960 560" xml:space="preserve">
<path fill="#A0A0A0" d="M474.6,109.3c127,0,223.6,10.6,266.2,16.2c5.3,27.1,13.9,82.2,13.9,155.6c0,72.9-9,125.9-14.4,151.4
    c-41.7,7.2-140.2,21.6-265,21.7l-1.4,0c-85.4,0-153.8-6.7-196.1-12.2c-23.4-3.1-41.7-6.2-54-8.5c-5.6-26.9-15-82.5-15.1-154.9
    c-0.1-72.2,9.5-126.7,15.2-152.6c37.2-5.8,123-16.6,248.7-16.7L474.6,109.3L474.6,109.3 M474.6,29.3c-0.6,0-1.3,0-2,0
    c-183.7,0.2-286,22-286,22c-17.1,2.1-33.1,17.8-35.2,35c0,0-22.8,75.2-22.6,192.3c0.2,117.1,22.2,194.3,22.2,194.3
    c0.8,13.1,15.5,32.6,35.9,34.6c0,0,110,26.7,287,26.7c0.5,0,1,0,1.5,0c177.8-0.2,303.5-27.6,303.5-27.6c16-1.8,32.2-17.8,34-34.1
    c0,0,21.9-71.7,21.9-191.4S813.9,85.9,813.9,85.9c-1.5-16.5-16.6-33.2-35.6-35.8C778.3,50.1,657.2,29.3,474.6,29.3L474.6,29.3z"/>
</svg>
